<svg width="95" height="89" viewBox="0 0 95 89" fill="none" xmlns="http://www.w3.org/2000/svg">
<path id="Vector" d="M10.1667 28.2019L19.5 84.2019H75.5L84.8333 28.2019M10.1667 28.2019L18.1758 34.6092C23.3835 38.7752 25.9873 40.8584 28.6119 41.1818C30.9114 41.4651 33.234 40.8827 35.128 39.5485C37.2898 38.0257 38.6035 34.9607 41.2303 28.8308L47.5 14.2019M10.1667 28.2019C12.744 28.2019 14.8333 26.1126 14.8333 23.5353C14.8333 20.958 12.744 18.8686 10.1667 18.8686C7.58936 18.8686 5.5 20.958 5.5 23.5353C5.5 26.1126 7.58936 28.2019 10.1667 28.2019ZM84.8333 28.2019L76.8244 34.6093C71.6164 38.7752 69.0129 40.8584 66.3879 41.1818C64.0886 41.4651 61.766 40.8827 59.8718 39.5485C57.7102 38.0257 56.3965 34.9607 53.7697 28.8308L47.5 14.2019M84.8333 28.2019C87.4107 28.2019 89.5 26.1126 89.5 23.5353C89.5 20.958 87.4107 18.8686 84.8333 18.8686C82.2559 18.8686 80.1667 20.958 80.1667 23.5353C80.1667 26.1126 82.2559 28.2019 84.8333 28.2019ZM47.5 14.2019C50.0774 14.2019 52.1667 12.1126 52.1667 9.53526C52.1667 6.95795 50.0774 4.86859 47.5 4.86859C44.9226 4.86859 42.8333 6.95795 42.8333 9.53526C42.8333 12.1126 44.9226 14.2019 47.5 14.2019ZM47.5 9.53526H47.5467M84.8333 23.5353H84.88M10.1667 23.5353H10.2133" stroke="white" stroke-width="9.33333" stroke-linecap="round" stroke-linejoin="round"/>
</svg>
