<svg width="134" height="72" viewBox="0 0 134 72" fill="none" xmlns="http://www.w3.org/2000/svg">
<rect width="134" height="72" fill="white"/>
<path d="M39.625 37.4825C42.4813 37.4654 45.2672 36.5948 47.625 34.9825C48.0063 34.7312 48.4492 34.5891 48.9056 34.5717C49.3619 34.5543 49.8143 34.6623 50.2137 34.8838C50.613 35.1054 50.9441 35.4321 51.1708 35.8286C51.3976 36.225 51.5114 36.6759 51.5 37.1325V40.1325C51.4613 42.7328 50.4111 45.2158 48.5722 47.0547C46.7333 48.8936 44.2503 49.9438 41.65 49.9825H16.35C13.7497 49.9438 11.2667 48.8936 9.42781 47.0547C7.58891 45.2158 6.53871 42.7328 6.49999 40.1325V37.1325C6.48855 36.6759 6.6024 36.225 6.82916 35.8286C7.05593 35.4321 7.38695 35.1054 7.7863 34.8838C8.18564 34.6623 8.63805 34.5543 9.09442 34.5717C9.55079 34.5891 9.99367 34.7312 10.375 34.9825C12.7328 36.5948 15.5187 37.4654 18.375 37.4825H39.625Z" fill="#2CA9BC"/>
<path d="M39 59.4575L18.45 29.9825M39 59.4575C38.4729 59.8511 38.1221 60.4367 38.0238 61.0872C37.9256 61.7377 38.0877 62.4007 38.475 62.9325L39.9 64.9825L43.925 62.1075L42.5 60.0575C42.3105 59.7871 42.0694 59.5569 41.7905 59.3802C41.5116 59.2036 41.2004 59.0839 40.875 59.0281C40.5496 58.9723 40.2164 58.9815 39.8946 59.0552C39.5727 59.1289 39.2687 59.2656 39 59.4575ZM39.625 37.4825C42.4813 37.4654 45.2672 36.5948 47.625 34.9825C48.0063 34.7312 48.4492 34.5891 48.9056 34.5717C49.3619 34.5543 49.8143 34.6622 50.2137 34.8838C50.613 35.1054 50.9441 35.4321 51.1708 35.8285C51.3976 36.225 51.5114 36.6759 51.5 37.1325V40.1325C51.4613 42.7328 50.4111 45.2158 48.5722 47.0547C46.7333 48.8936 44.2503 49.9438 41.65 49.9825H16.35C13.7497 49.9438 11.2667 48.8936 9.42781 47.0547C7.58891 45.2158 6.53871 42.7328 6.49999 40.1325V37.1325C6.48855 36.6759 6.6024 36.225 6.82916 35.8285C7.05593 35.4321 7.38695 35.1054 7.7863 34.8838C8.18564 34.6622 8.63805 34.5543 9.09442 34.5717C9.55079 34.5891 9.99367 34.7312 10.375 34.9825C12.7328 36.5948 15.5187 37.4654 18.375 37.4825H39.625Z" stroke="black" stroke-width="5" stroke-linecap="round" stroke-linejoin="round"/>
<path d="M41.1667 11.6667L38.25 29.1667H20.75L17.8333 11.6667M41.1667 11.6667L38.6638 13.6689C37.0364 14.9708 36.2227 15.6218 35.4025 15.7229C34.6839 15.8114 33.9581 15.6294 33.3663 15.2125C32.6907 14.7366 32.2802 13.7788 31.4593 11.8632L29.5 7.29167M41.1667 11.6667C40.3613 11.6667 39.7083 11.0137 39.7083 10.2083C39.7083 9.40292 40.3613 8.75 41.1667 8.75C41.9721 8.75 42.625 9.40292 42.625 10.2083C42.625 11.0137 41.9721 11.6667 41.1667 11.6667ZM17.8333 11.6667L20.3361 13.669C21.9636 14.9708 22.7772 15.6218 23.5975 15.7229C24.3161 15.8114 25.0419 15.6294 25.6338 15.2125C26.3093 14.7366 26.7198 13.7788 27.5407 11.8632L29.5 7.29167M17.8333 11.6667C17.0279 11.6667 16.375 11.0137 16.375 10.2083C16.375 9.40292 17.0279 8.75 17.8333 8.75C18.6388 8.75 19.2917 9.40292 19.2917 10.2083C19.2917 11.0137 18.6388 11.6667 17.8333 11.6667ZM29.5 7.29167C28.6946 7.29167 28.0417 6.63874 28.0417 5.83333C28.0417 5.02792 28.6946 4.375 29.5 4.375C30.3054 4.375 30.9583 5.02792 30.9583 5.83333C30.9583 6.63874 30.3054 7.29167 29.5 7.29167ZM29.5 5.83333H29.4854H29.5ZM17.8333 10.2083H17.8187H17.8333ZM41.1667 10.2083H41.1521H41.1667Z" fill="#2CA9BC"/>
<path d="M41.1667 11.6667L38.25 29.1667H20.75L17.8333 11.6667M41.1667 11.6667L38.6638 13.6689C37.0364 14.9708 36.2227 15.6218 35.4025 15.7229C34.6839 15.8114 33.9581 15.6294 33.3663 15.2125C32.6907 14.7366 32.2802 13.7788 31.4593 11.8632L29.5 7.29167M41.1667 11.6667C40.3613 11.6667 39.7083 11.0137 39.7083 10.2083C39.7083 9.40292 40.3613 8.75 41.1667 8.75C41.9721 8.75 42.625 9.40292 42.625 10.2083C42.625 11.0137 41.9721 11.6667 41.1667 11.6667ZM17.8333 11.6667L20.3361 13.669C21.9636 14.9708 22.7772 15.6218 23.5975 15.7229C24.3161 15.8114 25.0419 15.6294 25.6338 15.2125C26.3093 14.7366 26.7198 13.7788 27.5407 11.8632L29.5 7.29167M17.8333 11.6667C17.0279 11.6667 16.375 11.0137 16.375 10.2083C16.375 9.40292 17.0279 8.75 17.8333 8.75C18.6388 8.75 19.2917 9.40292 19.2917 10.2083C19.2917 11.0137 18.6388 11.6667 17.8333 11.6667ZM29.5 7.29167C28.6946 7.29167 28.0417 6.63874 28.0417 5.83333C28.0417 5.02792 28.6946 4.375 29.5 4.375C30.3054 4.375 30.9583 5.02792 30.9583 5.83333C30.9583 6.63874 30.3054 7.29167 29.5 7.29167ZM29.5 5.83333H29.4854M17.8333 10.2083H17.8187M41.1667 10.2083H41.1521" stroke="black" stroke-width="2.91667" stroke-linecap="round" stroke-linejoin="round"/>
<path d="M59.608 40.02L59.368 40.5H55.72V40.128L56.848 39.24V31.968L55.6 31.548L55.84 31.068H59.488V31.44L58.348 32.328V39.588L59.608 40.02ZM64.924 40.5H62.752L59.032 35.772L62.716 32.556L61.324 31.548L61.564 31.068H64.792V31.44L60.472 35.208L63.772 39.336L65.164 40.02L64.924 40.5ZM72.2362 40.5H69.9562V39.456L68.6002 40.524C68.4402 40.588 68.2402 40.62 68.0002 40.62C67.3122 40.62 66.8122 40.448 66.5002 40.104C66.1962 39.76 66.0442 39.348 66.0442 38.868C66.0442 38.58 66.1482 38.296 66.3562 38.016C66.5642 37.736 66.8602 37.472 67.2442 37.224H69.9562V36.456C69.9562 35.936 69.8162 35.568 69.5362 35.352C69.2642 35.136 68.8882 35.028 68.4082 35.028C67.9122 35.028 67.3042 35.328 66.5842 35.928L66.2242 35.472L67.9522 34.104C68.2722 34.04 68.6562 34.008 69.1042 34.008C69.8322 34.008 70.3962 34.188 70.7962 34.548C71.1962 34.9 71.3962 35.416 71.3962 36.096V39.6L72.4762 40.02L72.2362 40.5ZM68.3842 39.6C68.8722 39.6 69.3962 39.376 69.9562 38.928V37.716H67.8322C67.7282 37.844 67.6522 37.972 67.6042 38.1C67.5642 38.228 67.5442 38.368 67.5442 38.52C67.5442 38.816 67.6202 39.072 67.7722 39.288C67.9242 39.496 68.1282 39.6 68.3842 39.6ZM80.8653 40.512H78.5853V36.468C78.5853 36.028 78.5173 35.72 78.3813 35.544C78.2453 35.368 78.0013 35.28 77.6493 35.28C77.3853 35.28 77.1213 35.328 76.8573 35.424C76.6013 35.52 76.2973 35.704 75.9453 35.976V39.612L77.0253 40.032L76.7853 40.512H73.4373V40.14L74.5053 39.3V35.904L73.4373 35.28V34.908L75.4893 33.9L75.8853 35.46L77.5893 34.104C77.7573 34.04 77.9773 34.008 78.2493 34.008C78.7933 34.008 79.2253 34.176 79.5453 34.512C79.8653 34.84 80.0253 35.288 80.0253 35.856V39.6L81.1053 40.032L80.8653 40.512ZM89.1303 40.5H86.8503V39.252L85.3263 40.524C85.1583 40.588 84.9383 40.62 84.6663 40.62C84.1223 40.62 83.6903 40.456 83.3703 40.128C83.0503 39.792 82.8903 39.34 82.8903 38.772V35.904L81.8223 35.28V34.908L83.8743 33.9H84.3303V38.172C84.3303 38.612 84.3983 38.92 84.5343 39.096C84.6703 39.272 84.9143 39.36 85.2663 39.36C85.5143 39.36 85.7583 39.316 85.9983 39.228C86.2383 39.132 86.5223 38.948 86.8503 38.676V35.904L85.7823 35.28V34.908L87.8343 33.9H88.2903V39.6L89.3703 40.02L89.1303 40.5ZM94.401 40.02L94.161 40.5H90.513V40.128L91.641 39.24V31.968L90.393 31.548L90.633 31.068H94.281V31.44L93.141 32.328V39.588L94.401 40.02ZM99.717 40.5H97.545L93.825 35.772L97.509 32.556L96.117 31.548L96.357 31.068H99.585V31.44L95.265 35.208L98.565 39.336L99.957 40.02L99.717 40.5ZM102.637 30.348C102.853 30.348 103.029 30.432 103.165 30.6C103.309 30.768 103.381 30.976 103.381 31.224C103.381 31.4 103.329 31.564 103.225 31.716C103.129 31.868 103.005 31.992 102.853 32.088C102.701 32.176 102.553 32.22 102.409 32.22C102.193 32.22 102.013 32.136 101.869 31.968C101.733 31.8 101.665 31.592 101.665 31.344C101.665 31.168 101.713 31.004 101.809 30.852C101.913 30.7 102.041 30.58 102.193 30.492C102.345 30.396 102.493 30.348 102.637 30.348ZM105.877 30.348C106.093 30.348 106.269 30.432 106.405 30.6C106.549 30.768 106.621 30.976 106.621 31.224C106.621 31.4 106.569 31.564 106.465 31.716C106.369 31.868 106.245 31.992 106.093 32.088C105.941 32.176 105.793 32.22 105.649 32.22C105.433 32.22 105.253 32.136 105.109 31.968C104.973 31.8 104.905 31.592 104.905 31.344C104.905 31.168 104.953 31.004 105.049 30.852C105.153 30.7 105.281 30.58 105.433 30.492C105.585 30.396 105.733 30.348 105.877 30.348ZM104.569 34.008C105.097 34.008 105.569 34.148 105.985 34.428C106.409 34.7 106.737 35.072 106.969 35.544C107.209 36.016 107.329 36.536 107.329 37.104C107.329 37.72 107.141 38.3 106.765 38.844C106.389 39.38 105.917 39.812 105.349 40.14C104.789 40.46 104.245 40.62 103.717 40.62C103.189 40.62 102.713 40.484 102.289 40.212C101.873 39.932 101.545 39.556 101.305 39.084C101.073 38.612 100.957 38.092 100.957 37.524C100.957 36.908 101.145 36.332 101.521 35.796C101.897 35.252 102.365 34.82 102.925 34.5C103.493 34.172 104.041 34.008 104.569 34.008ZM103.873 35.016C102.969 35.016 102.517 35.66 102.517 36.948C102.517 37.708 102.681 38.344 103.009 38.856C103.337 39.36 103.805 39.612 104.413 39.612C105.317 39.612 105.769 38.964 105.769 37.668C105.769 36.916 105.605 36.288 105.277 35.784C104.949 35.272 104.481 35.016 103.873 35.016ZM116.256 40.512H113.976V36.468C113.976 36.028 113.908 35.72 113.772 35.544C113.636 35.368 113.392 35.28 113.04 35.28C112.776 35.28 112.512 35.328 112.248 35.424C111.992 35.52 111.688 35.704 111.336 35.976V39.612L112.416 40.032L112.176 40.512H108.828V40.14L109.896 39.3V35.904L108.828 35.28V34.908L110.88 33.9L111.276 35.46L112.98 34.104C113.148 34.04 113.368 34.008 113.64 34.008C114.184 34.008 114.616 34.176 114.936 34.512C115.256 34.84 115.416 35.288 115.416 35.856V39.6L116.496 40.032L116.256 40.512ZM120.801 40.5H117.453V40.128L118.521 39.288V35.784L117.453 35.04V34.668L119.505 33.9H119.961V39.6L121.041 40.02L120.801 40.5ZM119.193 30.3C119.433 30.3 119.629 30.388 119.781 30.564C119.941 30.74 120.021 30.96 120.021 31.224C120.021 31.408 119.965 31.584 119.853 31.752C119.741 31.912 119.601 32.04 119.433 32.136C119.265 32.232 119.101 32.28 118.941 32.28C118.701 32.28 118.501 32.192 118.341 32.016C118.189 31.84 118.113 31.62 118.113 31.356C118.113 31.172 118.169 31 118.281 30.84C118.393 30.672 118.533 30.54 118.701 30.444C118.869 30.348 119.033 30.3 119.193 30.3ZM127.373 34.956C127.597 35.276 127.709 35.636 127.709 36.036C127.709 36.388 127.609 36.736 127.409 37.08C127.209 37.416 126.941 37.712 126.605 37.968C126.269 38.224 125.901 38.416 125.501 38.544C125.285 38.76 125.177 38.988 125.177 39.228C125.177 39.364 125.281 39.492 125.489 39.612C125.705 39.724 126.021 39.86 126.437 40.02C127.005 40.244 127.441 40.448 127.745 40.632C128.057 40.824 128.213 41.056 128.213 41.328C128.213 41.568 128.057 41.876 127.745 42.252C127.441 42.628 127.061 42.956 126.605 43.236C126.149 43.516 125.709 43.656 125.285 43.656C124.837 43.656 124.305 43.58 123.689 43.428C123.081 43.276 122.573 43.124 122.165 42.972V41.124H122.621C123.069 41.676 123.525 42.096 123.989 42.384C124.453 42.672 124.977 42.816 125.561 42.816C125.777 42.816 125.973 42.772 126.149 42.684C126.333 42.596 126.473 42.484 126.569 42.348C126.673 42.22 126.725 42.096 126.725 41.976C126.725 41.76 126.601 41.572 126.353 41.412C126.105 41.26 125.717 41.072 125.189 40.848C124.685 40.64 124.309 40.46 124.061 40.308C123.821 40.156 123.701 39.98 123.701 39.78C123.701 39.588 123.829 39.392 124.085 39.192C124.341 38.992 124.645 38.816 124.997 38.664C124.869 38.688 124.737 38.7 124.601 38.7C124.177 38.7 123.789 38.608 123.437 38.424C123.085 38.232 122.805 37.98 122.597 37.668C122.397 37.356 122.297 37.016 122.297 36.648C122.297 36.208 122.449 35.784 122.753 35.376C123.057 34.968 123.449 34.64 123.929 34.392C124.417 34.136 124.913 34.008 125.417 34.008C125.977 34.008 126.469 34.168 126.893 34.488H128.777L128.789 34.956H127.373ZM125.297 37.668C125.657 37.668 125.929 37.58 126.113 37.404C126.305 37.22 126.401 36.952 126.401 36.6C126.401 36.12 126.245 35.732 125.933 35.436C125.629 35.14 125.225 34.992 124.721 34.992C124.369 34.992 124.097 35.08 123.905 35.256C123.721 35.424 123.629 35.684 123.629 36.036C123.629 36.524 123.781 36.92 124.085 37.224C124.397 37.52 124.801 37.668 125.297 37.668Z" fill="black"/>
</svg>
